<?xml version="1.0" encoding="utf-8"?>
<!-- Generator: Adobe Illustrator 16.0.0, SVG Export Plug-In . SVG Version: 6.00 Build 0)  -->
<!DOCTYPE svg PUBLIC "-//W3C//DTD SVG 1.1//EN" "http://www.w3.org/Graphics/SVG/1.1/DTD/svg11.dtd">
<svg version="1.1" id="Layer_1" xmlns="http://www.w3.org/2000/svg" xmlns:xlink="http://www.w3.org/1999/xlink" x="0px" y="0px"
	 width="267.019px" height="177.923px" viewBox="172.481 224.334 267.019 177.923"
	 enable-background="new 172.481 224.334 267.019 177.923" xml:space="preserve">
<g id="Layer_2">
	<path fill="#2370B6" d="M439.5,340.584c0,33.645-8.697,57.719-104.834,60.918C169.5,407,229.834,374.229,229.834,340.584
		s46.936-60.918,104.832-60.918C392.564,279.667,439.5,306.94,439.5,340.584z"/>
	<ellipse fill="#2370B6" cx="285.666" cy="285.667" rx="74" ry="61.333"/>
	<ellipse fill="#2370B6" cx="367.572" cy="302.175" rx="41.947" ry="40.992"/>
	<path fill="#2370B6" d="M315.167,334.666c0,0-40.822,17.351-24.217,22.294c198.883,59.207-47.117,43.374-47.117,43.374
		s-69.666,0-71.333-65.668C171.579,298.411,204.437,269,243.833,269S315.167,334.666,315.167,334.666z"/>
</g>
<g id="Layer_3">
	<path fill="#FFFFFF" d="M343.5,336.167L343.5,336.167h-74l0,0v65.403l0,0c0,0,6.531,0.685,36.5,0.685
		c21.531,0,37.5-1.114,37.5-1.114l0,0V336.167z"/>
	<path fill="#FFFFFF" d="M306.391,273.005"/>
	<g>
		<path fill="#FFFFFF" d="M241.826,342.189c-5.5,0.017-6.715-3.046-2.7-6.805l59.33-55.546c4.015-3.759,10.604-3.779,14.641-0.043
			l59.663,55.193c4.037,3.735,2.841,6.804-2.659,6.82L241.826,342.189z"/>
	</g>
</g>
</svg>
